<svg width="136" height="152" viewBox="0 0 136 152" fill="none" xmlns="http://www.w3.org/2000/svg">
<path d="M1.26 125.4C1.26 122.928 1.812 120.72 2.916 118.776C4.044 116.808 5.568 115.284 7.488 114.204C9.432 113.1 11.604 112.548 14.004 112.548C16.812 112.548 19.272 113.268 21.384 114.708C23.496 116.148 24.972 118.14 25.812 120.684H20.016C19.44 119.484 18.624 118.584 17.568 117.984C16.536 117.384 15.336 117.084 13.968 117.084C12.504 117.084 11.196 117.432 10.044 118.128C8.916 118.8 8.028 119.76 7.38 121.008C6.756 122.256 6.444 123.72 6.444 125.4C6.444 127.056 6.756 128.52 7.38 129.792C8.028 131.04 8.916 132.012 10.044 132.708C11.196 133.38 12.504 133.716 13.968 133.716C15.336 133.716 16.536 133.416 17.568 132.816C18.624 132.192 19.44 131.28 20.016 130.08H25.812C24.972 132.648 23.496 134.652 21.384 136.092C19.296 137.508 16.836 138.216 14.004 138.216C11.604 138.216 9.432 137.676 7.488 136.596C5.568 135.492 4.044 133.968 2.916 132.024C1.812 130.08 1.26 127.872 1.26 125.4ZM28.8208 127.956C28.8208 125.94 29.2168 124.152 30.0088 122.592C30.8248 121.032 31.9168 119.832 33.2848 118.992C34.6768 118.152 36.2248 117.732 37.9288 117.732C39.4168 117.732 40.7128 118.032 41.8168 118.632C42.9448 119.232 43.8448 119.988 44.5168 120.9V118.056H49.5928V138H44.5168V135.084C43.8688 136.02 42.9688 136.8 41.8168 137.424C40.6888 138.024 39.3808 138.324 37.8928 138.324C36.2128 138.324 34.6768 137.892 33.2848 137.028C31.9168 136.164 30.8248 134.952 30.0088 133.392C29.2168 131.808 28.8208 129.996 28.8208 127.956ZM44.5168 128.028C44.5168 126.804 44.2768 125.76 43.7968 124.896C43.3168 124.008 42.6688 123.336 41.8528 122.88C41.0368 122.4 40.1608 122.16 39.2248 122.16C38.2888 122.16 37.4248 122.388 36.6328 122.844C35.8408 123.3 35.1928 123.972 34.6888 124.86C34.2088 125.724 33.9688 126.756 33.9688 127.956C33.9688 129.156 34.2088 130.212 34.6888 131.124C35.1928 132.012 35.8408 132.696 36.6328 133.176C37.4488 133.656 38.3128 133.896 39.2248 133.896C40.1608 133.896 41.0368 133.668 41.8528 133.212C42.6688 132.732 43.3168 132.06 43.7968 131.196C44.2768 130.308 44.5168 129.252 44.5168 128.028ZM60.3833 122.196V131.844C60.3833 132.516 60.5393 133.008 60.8513 133.32C61.1873 133.608 61.7393 133.752 62.5073 133.752H64.8473V138H61.6793C57.4313 138 55.3073 135.936 55.3073 131.808V122.196H52.9313V118.056H55.3073V113.124H60.3833V118.056H64.8473V122.196H60.3833ZM87.0123 127.596C87.0123 128.316 86.9643 128.964 86.8683 129.54H72.2883C72.4083 130.98 72.9123 132.108 73.8003 132.924C74.6883 133.74 75.7803 134.148 77.0763 134.148C78.9483 134.148 80.2803 133.344 81.0723 131.736H86.5083C85.9323 133.656 84.8283 135.24 83.1963 136.488C81.5643 137.712 79.5603 138.324 77.1843 138.324C75.2643 138.324 73.5363 137.904 72.0003 137.064C70.4883 136.2 69.3003 134.988 68.4363 133.428C67.5963 131.868 67.1763 130.068 67.1763 128.028C67.1763 125.964 67.5963 124.152 68.4363 122.592C69.2763 121.032 70.4523 119.832 71.9643 118.992C73.4763 118.152 75.2163 117.732 77.1843 117.732C79.0803 117.732 80.7723 118.14 82.2603 118.956C83.7723 119.772 84.9363 120.936 85.7523 122.448C86.5923 123.936 87.0123 125.652 87.0123 127.596ZM81.7923 126.156C81.7683 124.86 81.3003 123.828 80.3883 123.06C79.4763 122.268 78.3603 121.872 77.0403 121.872C75.7923 121.872 74.7363 122.256 73.8723 123.024C73.0323 123.768 72.5163 124.812 72.3243 126.156H81.7923ZM96.559 122.196V131.844C96.559 132.516 96.715 133.008 97.027 133.32C97.363 133.608 97.915 133.752 98.683 133.752H101.023V138H97.855C93.607 138 91.483 135.936 91.483 131.808V122.196H89.107V118.056H91.483V113.124H96.559V118.056H101.023V122.196H96.559Z" fill="#00C7C7"/>
<path d="M107.204 115.68C106.316 115.68 105.572 115.404 104.972 114.852C104.396 114.276 104.108 113.568 104.108 112.728C104.108 111.888 104.396 111.192 104.972 110.64C105.572 110.064 106.316 109.776 107.204 109.776C108.092 109.776 108.824 110.064 109.4 110.64C110 111.192 110.3 111.888 110.3 112.728C110.3 113.568 110 114.276 109.4 114.852C108.824 115.404 108.092 115.68 107.204 115.68ZM109.688 118.056V138H104.648V118.056H109.688ZM125.72 117.768C128.096 117.768 130.016 118.524 131.48 120.036C132.944 121.524 133.676 123.612 133.676 126.3V138H128.636V126.984C128.636 125.4 128.24 124.188 127.448 123.348C126.656 122.484 125.576 122.052 124.208 122.052C122.816 122.052 121.712 122.484 120.896 123.348C120.104 124.188 119.708 125.4 119.708 126.984V138H114.668V118.056H119.708V120.54C120.38 119.676 121.232 119.004 122.264 118.524C123.32 118.02 124.472 117.768 125.72 117.768Z" fill="#316CFF"/>
<path d="M68 0C95.6563 0 118 21.8969 118 49C118 76.1031 95.6563 98 68 98C40.3437 98 18 76.1031 18 49C18 21.8969 40.3437 0 68 0Z" fill="#316CFF"/>
<path d="M89.875 22.9688H83.625H82.0625H46.125C44.4062 22.9688 43 24.3469 43 26.0312V78.0938C43 79.7781 44.4062 81.1562 46.125 81.1562H89.875C91.5938 81.1562 93 79.7781 93 78.0938V26.0312C93 24.3469 91.5938 22.9688 89.875 22.9688Z" fill="#444C63"/>
<path d="M88.3125 29.0938V75.0312C88.3125 75.7969 87.5312 76.5625 86.75 76.5625H49.25C48.4688 76.5625 47.6875 75.7969 47.6875 75.0312V29.0938C47.6875 28.3281 48.4688 27.5625 49.25 27.5625H86.75C87.5312 27.5625 88.3125 28.3281 88.3125 29.0938Z" fill="white"/>
<path d="M80.5 45.9375L63.3125 61.25L55.5 53.5938L58.625 50.5312L63.3125 55.125L77.375 42.875L80.5 45.9375Z" fill="#29CE7F"/>
<path d="M74.25 19.9062C74.25 16.2312 71.75 13.7812 68 13.7812C64.25 13.7812 61.75 16.2312 61.75 19.9062H53.9375V22.9688V30.625H82.0625V22.9688V19.9062H74.25ZM68 22.2031C66.75 22.2031 65.6562 21.1313 65.6562 19.9062C65.6562 18.6812 66.75 17.6094 68 17.6094C69.25 17.6094 70.3438 18.6812 70.3438 19.9062C70.3438 21.1313 69.25 22.2031 68 22.2031Z" fill="#FFB533"/>
<path d="M82.0625 26.3374H53.9375V30.6249H82.0625V26.3374Z" fill="#FFD05C"/>
</svg>
